<svg height="auto" viewBox="0 0 2000 1000" xmlns="http://www.w3.org/2000/svg"><path d="M0 735.159c14.2-11.712 42.6 48.899 71-58.56 28.4-107.46 42.6-446.421 71-478.736s42.6 241.878 71 317.162c28.4 75.284 42.6 59.933 71 59.257 28.4-.675 42.6-63.91 71-62.634 28.4 1.278 42.6 143.606 71 69.02 28.4-74.584 42.6-392.996 71-441.944 28.4-48.947 42.6 98.848 71 197.206 28.4 98.357 42.6 234.014 71 294.582 28.4 60.567 42.6 106.83 71 8.256s42.6-400.936 71-501.125c28.4-100.189 42.6 2.14 71 .179 28.4-1.96 42.6-65.89 71-9.982 28.4 55.907 42.6 192.695 71 289.519 28.4 96.823 42.6 148.574 71 194.598s42.6 54.813 71 35.521 42.6-120.846 71-131.98c28.4-11.134 42.6 80.397 71 76.31 28.4-4.086 42.6-133.553 71-96.74 28.4 36.811 42.6 314.53 71 280.8 28.4-33.73 42.6-345.283 71-449.451s42.6-139.555 71-71.392c28.4 68.164 42.6 426.3 71 412.21 28.4-14.09 42.6-501.294 71-482.66 28.4 18.635 42.6 574.013 71 575.83 28.4 1.819 42.6-523.461 71-566.741 28.4-43.28 42.6 325.1 71 350.342 28.4 25.242 56.8-179.305 71-224.131L2000 1000H0Z" fill="#444cf71a"/><path d="M0 735.159c14.2-11.712 42.6 48.899 71-58.56 28.4-107.46 42.6-446.421 71-478.736s42.6 241.878 71 317.162c28.4 75.284 42.6 59.933 71 59.257 28.4-.675 42.6-63.91 71-62.634 28.4 1.278 42.6 143.606 71 69.02 28.4-74.584 42.6-392.996 71-441.944 28.4-48.947 42.6 98.848 71 197.206 28.4 98.357 42.6 234.014 71 294.582 28.4 60.567 42.6 106.83 71 8.256s42.6-400.936 71-501.125c28.4-100.189 42.6 2.14 71 .179 28.4-1.96 42.6-65.89 71-9.982 28.4 55.907 42.6 192.695 71 289.519 28.4 96.823 42.6 148.574 71 194.598s42.6 54.813 71 35.521 42.6-120.846 71-131.98c28.4-11.134 42.6 80.397 71 76.31 28.4-4.086 42.6-133.553 71-96.74 28.4 36.811 42.6 314.53 71 280.8 28.4-33.73 42.6-345.283 71-449.451s42.6-139.555 71-71.392c28.4 68.164 42.6 426.3 71 412.21 28.4-14.09 42.6-501.294 71-482.66 28.4 18.635 42.6 574.013 71 575.83 28.4 1.819 42.6-523.461 71-566.741 28.4-43.28 42.6 325.1 71 350.342 28.4 25.242 56.8-179.305 71-224.131" fill="none" stroke="#444cf7" stroke-width="4"/></svg>