<svg height="auto" viewBox="0 0 2000 1000" xmlns="http://www.w3.org/2000/svg"><path d="M0 997.576c14.2-6.485 42.6-20.496 71-32.424s42.6-13.88 71-27.217c28.4-13.337 42.6-36.614 71-39.47 28.4-2.854 42.6 33.343 71 25.195 28.4-8.148 42.6-56.535 71-65.933 28.4-9.398 42.6 23.553 71 18.945 28.4-4.608 42.6-9.143 71-41.984s42.6-111.533 71-122.223c28.4-10.69 42.6 75.502 71 68.773 28.4-6.729 42.6-74.238 71-102.417 28.4-28.18 42.6-18.645 71-38.482s42.6-49.238 71-60.703c28.4-11.464 42.6-20.696 71 3.382 28.4 24.077 42.6 107.039 71 117.004 28.4 9.965 42.6-12.773 71-67.179 28.4-54.405 42.6-187.328 71-204.85 28.4-17.52 42.6 69.649 71 117.244s42.6 164.562 71 120.732c28.4-43.83 42.6-311.084 71-339.88 28.4-28.798 42.6 207.235 71 195.894 28.4-11.342 42.6-192.27 71-252.602 28.4-60.333 42.6-87.573 71-49.063 28.4 38.51 42.6 253.592 71 241.613 28.4-11.978 42.6-254.163 71-301.505 28.4-47.341 42.6 16.32 71 64.799 28.4 48.479 42.6 135.335 71 177.596 28.4 42.261 42.6 27.531 71 33.71 28.4 6.178 56.8-2.255 71-2.819L2000 1000H0Z" fill="#444cf71a"/><path d="M0 997.576c14.2-6.485 42.6-20.496 71-32.424s42.6-13.88 71-27.217c28.4-13.337 42.6-36.614 71-39.47 28.4-2.854 42.6 33.343 71 25.195 28.4-8.148 42.6-56.535 71-65.933 28.4-9.398 42.6 23.553 71 18.945 28.4-4.608 42.6-9.143 71-41.984s42.6-111.533 71-122.223c28.4-10.69 42.6 75.502 71 68.773 28.4-6.729 42.6-74.238 71-102.417 28.4-28.18 42.6-18.645 71-38.482s42.6-49.238 71-60.703c28.4-11.464 42.6-20.696 71 3.382 28.4 24.077 42.6 107.039 71 117.004 28.4 9.965 42.6-12.773 71-67.179 28.4-54.405 42.6-187.328 71-204.85 28.4-17.52 42.6 69.649 71 117.244s42.6 164.562 71 120.732c28.4-43.83 42.6-311.084 71-339.88 28.4-28.798 42.6 207.235 71 195.894 28.4-11.342 42.6-192.27 71-252.602 28.4-60.333 42.6-87.573 71-49.063 28.4 38.51 42.6 253.592 71 241.613 28.4-11.978 42.6-254.163 71-301.505 28.4-47.341 42.6 16.32 71 64.799 28.4 48.479 42.6 135.335 71 177.596 28.4 42.261 42.6 27.531 71 33.71 28.4 6.178 56.8-2.255 71-2.819" fill="none" stroke="#444cf7" stroke-width="4"/><g fill="#444cf7"><circle cy="997.576" r="8"/><circle cx="71" cy="965.152" r="8"/><circle cx="142" cy="937.935" r="8"/><circle cx="213" cy="898.466" r="8"/><circle cx="284" cy="923.66" r="8"/><circle cx="355" cy="857.727" r="8"/><circle cx="426" cy="876.672" r="8"/><circle cx="497" cy="834.688" r="8"/><circle cx="568" cy="712.465" r="8"/><circle cx="639" cy="781.238" r="8"/><circle cx="710" cy="678.821" r="8"/><circle cx="781" cy="640.339" r="8"/><circle cx="852" cy="579.636" r="8"/><circle cx="923" cy="583.018" r="8"/><circle cx="994" cy="700.022" r="8"/><circle cx="1065" cy="632.843" r="8"/><circle cx="1136" cy="427.994" r="8"/><circle cx="1207" cy="545.237" r="8"/><circle cx="1278" cy="665.969" r="8"/><circle cx="1349" cy="326.088" r="8"/><circle cx="1420" cy="521.983" r="8"/><circle cx="1491" cy="269.381" r="8"/><circle cx="1562" cy="220.318" r="8"/><circle cx="1633" cy="461.931" r="8"/><circle cx="1704" cy="160.426" r="8"/><circle cx="1775" cy="225.225" r="8"/><circle cx="1846" cy="402.821" r="8"/><circle cx="1917" cy="436.531" r="8"/><circle cx="1988" cy="433.712" r="8"/></g></svg>