<svg height="auto" viewBox="0 0 2000 1000" xmlns="http://www.w3.org/2000/svg"><path d="M0 13.816c14.2 3.097 42.6 6.2 71 15.483 28.4 9.283 42.6 21.566 71 30.93 28.4 9.365 42.6 8.392 71 15.893 28.4 7.5 42.6 13.295 71 21.608 28.4 8.314 42.6 10.041 71 19.959 28.4 9.917 42.6 11.405 71 29.629 28.4 18.223 42.6 42.976 71 61.49 28.4 18.513 42.6 32.657 71 31.078 28.4-1.58 42.6-52.864 71-38.975 28.4 13.89 42.6 81.609 71 108.423 28.4 26.814 42.6 19.25 71 25.647 28.4 6.397 42.6 9.505 71 6.336 28.4-3.169 42.6-54.481 71-22.182 28.4 32.3 42.6 179.01 71 183.68 28.4 4.67 42.6-121.231 71-160.332 28.4-39.1 42.6-78.744 71-35.171 28.4 43.572 42.6 221.969 71 253.033 28.4 31.064 42.6-70.707 71-97.712 28.4-27.004 42.6-48.742 71-37.312s42.6 90.204 71 94.464c28.4 4.26 42.6-54.229 71-73.163 28.4-18.934 42.6-34.277 71-21.509s42.6 72.705 71 85.348 42.6-42.804 71-22.134c28.4 20.671 42.6 65.155 71 125.487 28.4 60.332 42.6 183.93 71 176.175 28.4-7.756 42.6-219.067 71-214.953 28.4 4.115 56.8 188.422 71 235.527L2000 1000H0Z" fill="#444cf71a"/><path d="M0 13.816c14.2 3.097 42.6 6.2 71 15.483 28.4 9.283 42.6 21.566 71 30.93 28.4 9.365 42.6 8.392 71 15.893 28.4 7.5 42.6 13.295 71 21.608 28.4 8.314 42.6 10.041 71 19.959 28.4 9.917 42.6 11.405 71 29.629 28.4 18.223 42.6 42.976 71 61.49 28.4 18.513 42.6 32.657 71 31.078 28.4-1.58 42.6-52.864 71-38.975 28.4 13.89 42.6 81.609 71 108.423 28.4 26.814 42.6 19.25 71 25.647 28.4 6.397 42.6 9.505 71 6.336 28.4-3.169 42.6-54.481 71-22.182 28.4 32.3 42.6 179.01 71 183.68 28.4 4.67 42.6-121.231 71-160.332 28.4-39.1 42.6-78.744 71-35.171 28.4 43.572 42.6 221.969 71 253.033 28.4 31.064 42.6-70.707 71-97.712 28.4-27.004 42.6-48.742 71-37.312s42.6 90.204 71 94.464c28.4 4.26 42.6-54.229 71-73.163 28.4-18.934 42.6-34.277 71-21.509s42.6 72.705 71 85.348 42.6-42.804 71-22.134c28.4 20.671 42.6 65.155 71 125.487 28.4 60.332 42.6 183.93 71 176.175 28.4-7.756 42.6-219.067 71-214.953 28.4 4.115 56.8 188.422 71 235.527" fill="none" stroke="#444cf7" stroke-width="4"/><g fill="#444cf7"><circle cy="13.816" r="8"/><circle cx="71" cy="29.299" r="8"/><circle cx="142" cy="60.23" r="8"/><circle cx="213" cy="76.122" r="8"/><circle cx="284" cy="97.73" r="8"/><circle cx="355" cy="117.689" r="8"/><circle cx="426" cy="147.318" r="8"/><circle cx="497" cy="208.807" r="8"/><circle cx="568" cy="239.886" r="8"/><circle cx="639" cy="200.911" r="8"/><circle cx="710" cy="309.334" r="8"/><circle cx="781" cy="334.981" r="8"/><circle cx="852" cy="341.317" r="8"/><circle cx="923" cy="319.135" r="8"/><circle cx="994" cy="502.815" r="8"/><circle cx="1065" cy="342.483" r="8"/><circle cx="1136" cy="307.312" r="8"/><circle cx="1207" cy="560.345" r="8"/><circle cx="1278" cy="462.633" r="8"/><circle cx="1349" cy="425.321" r="8"/><circle cx="1420" cy="519.785" r="8"/><circle cx="1491" cy="446.622" r="8"/><circle cx="1562" cy="425.113" r="8"/><circle cx="1633" cy="510.461" r="8"/><circle cx="1704" cy="488.327" r="8"/><circle cx="1775" cy="613.814" r="8"/><circle cx="1846" cy="789.989" r="8"/><circle cx="1917" cy="575.036" r="8"/><circle cx="1988" cy="810.563" r="8"/></g></svg>