<svg height="auto" viewBox="0 0 2000 1000" xmlns="http://www.w3.org/2000/svg"><path d="M0 12.026C14.2 16.64 42.6 23.64 71 35.1c28.4 11.46 42.6 27.925 71 34.23 28.4 6.303 42.6-13.698 71-2.71 28.4 10.99 42.6 35.63 71 57.655s42.6 50.485 71 52.468c28.4 1.983 42.6-53.952 71-42.554 28.4 11.398 42.6 80 71 99.544 28.4 19.543 42.6-15.562 71-1.828s42.6 80.199 71 70.497c28.4-9.703 42.6-128.163 71-119.009 28.4 9.155 42.6 149.259 71 164.78 28.4 15.522 42.6-93.204 71-87.171 28.4 6.033 42.6 80.143 71 117.337 28.4 37.195 42.6 61.42 71 68.636 28.4 7.216 42.6-50.542 71-32.555 28.4 17.987 42.6 121.1 71 122.49 28.4 1.39 42.6-80.695 71-115.54 28.4-34.845 42.6-64.222 71-58.686 28.4 5.536 42.6 47.182 71 86.367s42.6 119.83 71 109.557c28.4-10.274 42.6-207.145 71-160.925s42.6 380.521 71 392.025c28.4 11.504 42.6-301.306 71-334.505 28.4-33.199 42.6 120.729 71 168.51 28.4 47.783 42.6 52.825 71 70.4 28.4 17.575 42.6-23.502 71 17.476 28.4 40.978 42.6 204.642 71 187.414 28.4-17.228 56.8-218.845 71-273.557L2000 1000H0Z" fill="#444cf71a"/><path d="M0 12.026C14.2 16.64 42.6 23.64 71 35.1c28.4 11.46 42.6 27.925 71 34.23 28.4 6.303 42.6-13.698 71-2.71 28.4 10.99 42.6 35.63 71 57.655s42.6 50.485 71 52.468c28.4 1.983 42.6-53.952 71-42.554 28.4 11.398 42.6 80 71 99.544 28.4 19.543 42.6-15.562 71-1.828s42.6 80.199 71 70.497c28.4-9.703 42.6-128.163 71-119.009 28.4 9.155 42.6 149.259 71 164.78 28.4 15.522 42.6-93.204 71-87.171 28.4 6.033 42.6 80.143 71 117.337 28.4 37.195 42.6 61.42 71 68.636 28.4 7.216 42.6-50.542 71-32.555 28.4 17.987 42.6 121.1 71 122.49 28.4 1.39 42.6-80.695 71-115.54 28.4-34.845 42.6-64.222 71-58.686 28.4 5.536 42.6 47.182 71 86.367s42.6 119.83 71 109.557c28.4-10.274 42.6-207.145 71-160.925s42.6 380.521 71 392.025c28.4 11.504 42.6-301.306 71-334.505 28.4-33.199 42.6 120.729 71 168.51 28.4 47.783 42.6 52.825 71 70.4 28.4 17.575 42.6-23.502 71 17.476 28.4 40.978 42.6 204.642 71 187.414 28.4-17.228 56.8-218.845 71-273.557" fill="none" stroke="#444cf7" stroke-width="4"/><g fill="#444cf7"><circle cy="12.026" r="8"/><circle cx="71" cy="35.101" r="8"/><circle cx="142" cy="69.33" r="8"/><circle cx="213" cy="66.622" r="8"/><circle cx="284" cy="124.276" r="8"/><circle cx="355" cy="176.744" r="8"/><circle cx="426" cy="134.19" r="8"/><circle cx="497" cy="233.734" r="8"/><circle cx="568" cy="231.906" r="8"/><circle cx="639" cy="302.403" r="8"/><circle cx="710" cy="183.394" r="8"/><circle cx="781" cy="348.175" r="8"/><circle cx="852" cy="261.003" r="8"/><circle cx="923" cy="378.34" r="8"/><circle cx="994" cy="446.976" r="8"/><circle cx="1065" cy="414.421" r="8"/><circle cx="1136" cy="536.91" r="8"/><circle cx="1207" cy="421.371" r="8"/><circle cx="1278" cy="362.685" r="8"/><circle cx="1349" cy="449.052" r="8"/><circle cx="1420" cy="558.609" r="8"/><circle cx="1491" cy="397.684" r="8"/><circle cx="1562" cy="789.709" r="8"/><circle cx="1633" cy="455.204" r="8"/><circle cx="1704" cy="623.715" r="8"/><circle cx="1775" cy="694.114" r="8"/><circle cx="1846" cy="711.59" r="8"/><circle cx="1917" cy="899.004" r="8"/><circle cx="1988" cy="625.447" r="8"/></g></svg>